# xmcd CD database file
#
# Track frame offsets:
#	183
#	19963
#	36740
#	50508
#	64603
#	84525
#	101575
#	118220
#	136833
#	148110
#	160508
#	174070
#	187428
#	202888
#
# Disc length: 2869 seconds
#
# Revision: 0
# Processed by: cddbd v1.5.1PL0 Copyright (c) Steve Scherf et al.
# Submitted via: CDex 1.51
#
DISCID=c70b330e
DTITLE=Encuentors - A New World Of Inspiration
DYEAR=1996
DGENRE=New Age
TTITLE0=Un Encuentro En España
TTITLE1=El Bosque
TTITLE2=Tatiana
TTITLE3=La Danza De Las Brujas
TTITLE4=Galapagos
TTITLE5=Amor Español
TTITLE6=La Barca
TTITLE7=Merida
TTITLE8=Camino Al Sur
TTITLE9=Amazonia
TTITLE10=El Ultimo Paraiso
TTITLE11=Azabache
TTITLE12=Un Encuentro En España ( Radio Version )
TTITLE13=La Danza De Las Brujas ( Radio Version )
EXTD=YEAR: 1996
EXTT0=
EXTT1=
EXTT2=
EXTT3=
EXTT4=
EXTT5=
EXTT6=
EXTT7=
EXTT8=
EXTT9=
EXTT10=
EXTT11=
EXTT12=
EXTT13=
PLAYORDER=
